<svg xmlns="http://www.w3.org/2000/svg" xmlns:xlink="http://www.w3.org/1999/xlink" width="500" zoomAndPan="magnify" viewBox="0 0 375 374.999991" height="500" preserveAspectRatio="xMidYMid meet" version="1.0"><defs><g/><clipPath id="b3216ba8fc"><path d="M 263.84375 138 L 338.09375 138 L 338.09375 183.675781 L 263.84375 183.675781 Z M 263.84375 138 " clip-rule="nonzero"/></clipPath></defs><rect x="-37.5" width="450" fill="#ffffff" y="-37.499999" height="449.999989" fill-opacity="1"/><rect x="-37.5" width="450" fill="#ffffff" y="-37.499999" height="449.999989" fill-opacity="1"/><g fill="#baae00" fill-opacity="1"><g transform="translate(25.59524, 182.5689)"><g><path d="M 61.75 -13.859375 C 61.9375 -13.785156 62.03125 -13.628906 62.03125 -13.390625 C 62.03125 -13.148438 61.96875 -12.882812 61.84375 -12.59375 C 61.726562 -12.3125 61.644531 -12.066406 61.59375 -11.859375 C 59.550781 -7.097656 57.140625 -2.535156 54.359375 1.828125 C 51.578125 6.191406 48.238281 10.035156 44.34375 13.359375 C 42.28125 15.078125 40.097656 16.625 37.796875 18 C 35.503906 19.382812 33.039062 20.546875 30.40625 21.484375 C 28.738281 22.085938 27.21875 22.507812 25.84375 22.75 C 24.476562 22.988281 22.890625 23.097656 21.078125 23.078125 C 20.046875 23.097656 19.015625 23.066406 17.984375 22.984375 C 16.953125 22.910156 15.910156 22.734375 14.859375 22.453125 C 9.972656 21.066406 6.347656 18.101562 3.984375 13.5625 C 3.171875 11.976562 2.535156 10.375 2.078125 8.75 C 1.628906 7.125 1.296875 5.488281 1.078125 3.84375 C 0.515625 -0.550781 0.492188 -4.875 1.015625 -9.125 C 1.703125 -15.019531 2.894531 -20.6875 4.59375 -26.125 C 6.300781 -31.570312 8.460938 -36.8125 11.078125 -41.84375 C 13.921875 -47.414062 17.414062 -52.523438 21.5625 -57.171875 C 24.425781 -60.390625 27.695312 -63.144531 31.375 -65.4375 C 34.113281 -67.175781 37.160156 -68.316406 40.515625 -68.859375 C 41.992188 -69.128906 43.488281 -69.066406 45 -68.671875 C 47.351562 -68.097656 48.851562 -66.644531 49.5 -64.3125 C 49.957031 -62.425781 49.957031 -60.085938 49.5 -57.296875 C 49.050781 -54.503906 48.332031 -51.59375 47.34375 -48.5625 C 46.363281 -45.53125 45.273438 -42.71875 44.078125 -40.125 C 42.890625 -37.53125 41.796875 -35.460938 40.796875 -33.921875 C 40.503906 -33.523438 40.148438 -33.285156 39.734375 -33.203125 C 39.316406 -33.128906 38.851562 -33.15625 38.34375 -33.28125 C 38.082031 -33.34375 37.867188 -33.488281 37.703125 -33.71875 C 37.546875 -33.945312 37.519531 -34.15625 37.625 -34.34375 C 37.707031 -34.664062 37.828125 -34.972656 37.984375 -35.265625 C 38.054688 -35.429688 38.140625 -35.609375 38.234375 -35.796875 C 38.597656 -36.671875 39.019531 -37.632812 39.5 -38.6875 C 40.5625 -41.050781 41.660156 -43.632812 42.796875 -46.4375 C 43.941406 -49.238281 44.867188 -52.03125 45.578125 -54.8125 C 46.285156 -57.601562 46.546875 -60.125 46.359375 -62.375 C 46.003906 -66.1875 44.070312 -67.609375 40.5625 -66.640625 C 39.007812 -66.210938 37.566406 -65.644531 36.234375 -64.9375 C 34.898438 -64.238281 33.617188 -63.453125 32.390625 -62.578125 C 29.941406 -60.804688 27.707031 -58.835938 25.6875 -56.671875 C 23.675781 -54.515625 21.835938 -52.210938 20.171875 -49.765625 C 11.910156 -37.753906 6.832031 -24.140625 4.9375 -8.921875 C 4.382812 -4.515625 4.398438 -0.015625 4.984375 4.578125 C 5.304688 7.210938 6.078125 9.800781 7.296875 12.34375 C 8.523438 14.851562 9.984375 16.769531 11.671875 18.09375 C 13.367188 19.414062 15.128906 20.285156 16.953125 20.703125 C 18.773438 21.117188 20.492188 21.234375 22.109375 21.046875 C 24.929688 20.722656 27.585938 19.984375 30.078125 18.828125 C 35.023438 16.578125 39.070312 14.175781 42.21875 11.625 C 45.363281 9.070312 48 6.394531 50.125 3.59375 C 52.257812 0.789062 54.257812 -2.140625 56.125 -5.203125 C 56.863281 -6.421875 57.503906 -7.59375 58.046875 -8.71875 C 58.691406 -10.050781 59.535156 -11.539062 60.578125 -13.1875 C 60.929688 -13.695312 61.320312 -13.921875 61.75 -13.859375 Z M 61.75 -13.859375 "/></g></g><g transform="translate(84.723654, 182.5689)"><g><path d="M 24.859375 -11.296875 C 24.460938 -10.066406 23.664062 -8.65625 22.46875 -7.0625 C 21.269531 -5.476562 19.773438 -4.457031 17.984375 -4 C 16.203125 -3.539062 14.660156 -3.597656 13.359375 -4.171875 C 12.054688 -4.753906 11.335938 -6.304688 11.203125 -8.828125 C 9.722656 -5.960938 8.3125 -4.125 6.96875 -3.3125 C 5.632812 -2.507812 4.242188 -2.203125 2.796875 -2.390625 C 1.148438 -2.660156 0.0390625 -3.300781 -0.53125 -4.3125 C -1.113281 -5.320312 -1.304688 -6.488281 -1.109375 -7.8125 C -0.921875 -9.132812 -0.519531 -10.40625 0.09375 -11.625 C 0.570312 -12.53125 1.238281 -13.367188 2.09375 -14.140625 C 2.957031 -14.921875 3.859375 -15.53125 4.796875 -15.96875 C 5.953125 -16.5625 7.113281 -16.84375 8.28125 -16.8125 C 9.457031 -16.78125 10.710938 -16.390625 12.046875 -15.640625 C 12.066406 -15.609375 12.078125 -15.640625 12.078125 -15.734375 C 12.078125 -15.867188 12.109375 -16.035156 12.171875 -16.234375 C 12.242188 -16.429688 12.363281 -16.585938 12.53125 -16.703125 C 12.96875 -17.023438 13.484375 -17.1875 14.078125 -17.1875 C 14.679688 -17.1875 15.144531 -16.882812 15.46875 -16.28125 C 15.53125 -15.507812 15.453125 -14.519531 15.234375 -13.3125 C 14.742188 -10.675781 14.738281 -8.78125 15.21875 -7.625 C 15.707031 -6.46875 16.5625 -5.925781 17.78125 -6 C 19.007812 -6.082031 20.597656 -7.289062 22.546875 -9.625 C 24.492188 -11.96875 25.265625 -12.523438 24.859375 -11.296875 Z M 3.234375 -5.09375 C 3.898438 -4.613281 4.671875 -4.679688 5.546875 -5.296875 C 6.421875 -5.910156 7.257812 -6.78125 8.0625 -7.90625 C 8.863281 -9.039062 9.539062 -10.171875 10.09375 -11.296875 C 10.644531 -12.421875 10.953125 -13.253906 11.015625 -13.796875 C 9.367188 -14.679688 7.957031 -14.832031 6.78125 -14.25 C 5.613281 -13.664062 4.679688 -12.71875 3.984375 -11.40625 C 3.285156 -10.101562 2.867188 -8.832031 2.734375 -7.59375 C 2.609375 -6.351562 2.773438 -5.519531 3.234375 -5.09375 Z M 3.234375 -5.09375 "/></g></g><g transform="translate(108.014668, 182.5689)"><g><path d="M 18.171875 -8.453125 C 19.296875 -10.242188 19.960938 -11.378906 20.171875 -11.859375 C 20.390625 -12.347656 20.5625 -12.328125 20.6875 -11.796875 C 20.8125 -11.273438 20.445312 -10.085938 19.59375 -8.234375 C 18.75 -6.378906 17.695312 -4.945312 16.4375 -3.9375 C 15.175781 -2.9375 14 -2.566406 12.90625 -2.828125 C 11.8125 -3.097656 11.03125 -3.859375 10.5625 -5.109375 C 10.09375 -6.359375 9.957031 -7.9375 10.15625 -9.84375 C 10.15625 -9.875 10.171875 -9.953125 10.203125 -10.078125 C 10.222656 -10.398438 10.273438 -10.875 10.359375 -11.5 C 10.441406 -12.132812 10.5 -12.789062 10.53125 -13.46875 C 10.570312 -14.144531 10.550781 -14.703125 10.46875 -15.140625 C 10.382812 -15.578125 10.179688 -15.726562 9.859375 -15.59375 C 9.085938 -15.175781 8.332031 -14.347656 7.59375 -13.109375 C 6.851562 -11.867188 6.179688 -10.570312 5.578125 -9.21875 C 4.984375 -7.863281 4.5625 -6.769531 4.3125 -5.9375 C 4.207031 -5.664062 4.109375 -5.382812 4.015625 -5.09375 C 3.890625 -4.71875 3.742188 -4.335938 3.578125 -3.953125 C 3.148438 -2.859375 2.410156 -2.4375 1.359375 -2.6875 C 0.773438 -2.8125 0.429688 -3.164062 0.328125 -3.75 C 0.296875 -4.207031 0.28125 -4.640625 0.28125 -5.046875 C 0.28125 -5.316406 0.265625 -5.5625 0.234375 -5.78125 C 0.179688 -9.03125 0.101562 -12.300781 0 -15.59375 C 0.03125 -15.976562 0.195312 -16.242188 0.5 -16.390625 C 0.8125 -16.535156 1.179688 -16.609375 1.609375 -16.609375 C 1.929688 -16.609375 2.234375 -16.519531 2.515625 -16.34375 C 2.796875 -16.164062 2.972656 -15.800781 3.046875 -15.25 C 3.078125 -15.0625 3.09375 -14.867188 3.09375 -14.671875 C 3.125 -14.578125 3.140625 -14.484375 3.140625 -14.390625 C 3.203125 -13.941406 3.234375 -13.554688 3.234375 -13.234375 C 3.234375 -12.742188 3.265625 -12.410156 3.328125 -12.234375 C 3.390625 -12.054688 3.523438 -12.0625 3.734375 -12.25 C 3.953125 -12.445312 4.304688 -12.90625 4.796875 -13.625 C 5.628906 -14.914062 6.660156 -16.003906 7.890625 -16.890625 C 9.015625 -17.703125 10.253906 -18.039062 11.609375 -17.90625 C 12.765625 -17.789062 13.539062 -17.179688 13.9375 -16.078125 C 14.09375 -15.523438 14.171875 -14.96875 14.171875 -14.40625 C 14.171875 -13.84375 14.132812 -13.273438 14.0625 -12.703125 C 14.03125 -12.117188 13.988281 -11.519531 13.9375 -10.90625 C 13.882812 -10.707031 13.847656 -10.515625 13.828125 -10.328125 C 13.628906 -8.234375 13.691406 -6.828125 14.015625 -6.109375 C 14.335938 -5.398438 14.828125 -5.164062 15.484375 -5.40625 C 16.148438 -5.65625 17.046875 -6.671875 18.171875 -8.453125 Z M 18.171875 -8.453125 "/></g></g><g transform="translate(127.350604, 182.5689)"><g><path d="M 34.46875 -10.71875 C 34.601562 -10.96875 34.804688 -11.097656 35.078125 -11.109375 C 35.347656 -11.128906 35.578125 -10.960938 35.765625 -10.609375 C 35.835938 -10.523438 35.769531 -10.28125 35.5625 -9.875 C 35.351562 -9.46875 35.070312 -9.007812 34.71875 -8.5 C 34.363281 -8 34.023438 -7.539062 33.703125 -7.125 C 33.378906 -6.707031 33.15625 -6.4375 33.03125 -6.3125 C 31.570312 -4.695312 30.109375 -3.507812 28.640625 -2.75 C 27.179688 -2 25.59375 -1.835938 23.875 -2.265625 C 22.164062 -2.703125 20.25 -3.925781 18.125 -5.9375 C 17.800781 -6.28125 17.476562 -6.628906 17.15625 -6.984375 C 17.070312 -7.085938 16.992188 -7.179688 16.921875 -7.265625 C 16.566406 -7.660156 16.175781 -7.710938 15.75 -7.421875 C 15.3125 -7.097656 14.867188 -6.773438 14.421875 -6.453125 C 14.023438 -6.160156 13.617188 -5.890625 13.203125 -5.640625 C 11.835938 -4.703125 10.40625 -3.914062 8.90625 -3.28125 C 7.289062 -2.5625 5.597656 -2.28125 3.828125 -2.4375 C 1.054688 -2.757812 -0.378906 -4.289062 -0.484375 -7.03125 C -0.515625 -8.96875 -0.101562 -10.703125 0.75 -12.234375 C 1.613281 -13.765625 2.8125 -14.890625 4.34375 -15.609375 C 5.875 -16.335938 7.632812 -16.484375 9.625 -16.046875 C 9.84375 -15.992188 10.132812 -15.925781 10.5 -15.84375 C 10.71875 -15.769531 10.988281 -15.703125 11.3125 -15.640625 C 11.125 -16.097656 10.945312 -16.503906 10.78125 -16.859375 C 10.488281 -17.441406 10.234375 -17.972656 10.015625 -18.453125 C 8.679688 -21.191406 7.597656 -24.320312 6.765625 -27.84375 C 5.929688 -31.375 5.519531 -34.988281 5.53125 -38.6875 C 5.550781 -42.394531 6.171875 -45.84375 7.390625 -49.03125 C 8.617188 -52.226562 10.648438 -54.863281 13.484375 -56.9375 C 15.285156 -58.144531 17.144531 -58.800781 19.0625 -58.90625 C 20.988281 -59.007812 22.804688 -58.59375 24.515625 -57.65625 C 26.222656 -56.71875 27.609375 -55.3125 28.671875 -53.4375 C 30.046875 -50.863281 30.894531 -48.144531 31.21875 -45.28125 C 31.8125 -40.664062 31.71875 -36.359375 30.9375 -32.359375 C 30.15625 -28.367188 28.785156 -24.59375 26.828125 -21.03125 C 24.867188 -17.46875 22.375 -14.007812 19.34375 -10.65625 C 19.039062 -10.332031 18.882812 -10.078125 18.875 -9.890625 C 18.863281 -9.703125 19.003906 -9.429688 19.296875 -9.078125 C 19.910156 -8.265625 20.578125 -7.476562 21.296875 -6.71875 C 22.023438 -5.957031 22.835938 -5.320312 23.734375 -4.8125 C 24.992188 -4.269531 26.335938 -4.257812 27.765625 -4.78125 C 29.203125 -5.3125 30.53125 -6.132812 31.75 -7.25 C 32.976562 -8.363281 33.882812 -9.519531 34.46875 -10.71875 Z M 12.921875 -8.796875 C 13.296875 -9.109375 13.328125 -9.472656 13.015625 -9.890625 C 12.816406 -10.117188 12.625 -10.359375 12.4375 -10.609375 C 11.90625 -11.253906 11.300781 -11.914062 10.625 -12.59375 C 9.957031 -13.28125 9.257812 -13.796875 8.53125 -14.140625 C 7.8125 -14.492188 7.078125 -14.523438 6.328125 -14.234375 C 5.304688 -13.753906 4.460938 -12.898438 3.796875 -11.671875 C 3.140625 -10.453125 2.753906 -9.195312 2.640625 -7.90625 C 2.523438 -6.625 2.773438 -5.644531 3.390625 -4.96875 C 4.003906 -4.289062 5.050781 -4.222656 6.53125 -4.765625 C 8.851562 -5.796875 10.984375 -7.140625 12.921875 -8.796875 Z M 17.796875 -13.5625 C 20.890625 -17.207031 23.203125 -20.796875 24.734375 -24.328125 C 26.265625 -27.859375 27.300781 -31.988281 27.84375 -36.71875 C 28 -37.875 28.066406 -39.390625 28.046875 -41.265625 C 28.035156 -43.140625 27.867188 -45.097656 27.546875 -47.140625 C 27.234375 -49.179688 26.65625 -51.039062 25.8125 -52.71875 C 24.976562 -54.394531 23.8125 -55.601562 22.3125 -56.34375 C 20.8125 -57.082031 18.890625 -57.082031 16.546875 -56.34375 C 13.960938 -54.832031 12.046875 -52.828125 10.796875 -50.328125 C 9.554688 -47.828125 8.847656 -45.046875 8.671875 -41.984375 C 8.503906 -38.921875 8.707031 -35.789062 9.28125 -32.59375 C 9.863281 -29.40625 10.671875 -26.378906 11.703125 -23.515625 C 12.734375 -20.648438 13.84375 -18.160156 15.03125 -16.046875 C 15.164062 -15.773438 15.296875 -15.507812 15.421875 -15.25 C 15.773438 -14.382812 16.289062 -13.597656 16.96875 -12.890625 C 17.0625 -12.984375 17.160156 -13.066406 17.265625 -13.140625 C 17.460938 -13.253906 17.640625 -13.394531 17.796875 -13.5625 Z M 17.796875 -13.5625 "/></g></g><g transform="translate(161.627946, 182.5689)"><g><path d="M 21.1875 -10.609375 C 21.507812 -10.804688 21.820312 -10.953125 22.125 -11.046875 C 22.4375 -11.148438 22.640625 -11.144531 22.734375 -11.03125 C 22.828125 -10.914062 22.695312 -10.648438 22.34375 -10.234375 C 21.25 -8.972656 19.9375 -7.816406 18.40625 -6.765625 C 16.875 -5.722656 15.300781 -4.84375 13.6875 -4.125 C 12.425781 -3.5625 11.097656 -3.109375 9.703125 -2.765625 C 8.304688 -2.429688 6.921875 -2.359375 5.546875 -2.546875 C 4.179688 -2.734375 2.929688 -3.34375 1.796875 -4.375 C 0.0859375 -5.957031 -0.617188 -7.890625 -0.328125 -10.171875 C -0.078125 -11.984375 0.625 -13.523438 1.78125 -14.796875 C 2.945312 -16.066406 4.421875 -16.925781 6.203125 -17.375 C 7.679688 -17.695312 9.160156 -17.734375 10.640625 -17.484375 C 11.304688 -17.390625 11.921875 -17.164062 12.484375 -16.8125 C 12.992188 -16.414062 13.273438 -15.953125 13.328125 -15.421875 C 13.378906 -14.898438 13.175781 -14.394531 12.71875 -13.90625 C 11.78125 -13.070312 10.695312 -12.578125 9.46875 -12.421875 C 8.09375 -12.179688 6.707031 -12.03125 5.3125 -11.96875 C 4.644531 -11.96875 4.175781 -11.828125 3.90625 -11.546875 C 3.632812 -11.273438 3.472656 -10.800781 3.421875 -10.125 C 3.203125 -8.300781 3.789062 -6.804688 5.1875 -5.640625 C 6.050781 -4.953125 7.101562 -4.660156 8.34375 -4.765625 C 9.582031 -4.867188 10.894531 -5.203125 12.28125 -5.765625 C 13.675781 -6.328125 15.039062 -6.984375 16.375 -7.734375 C 17.707031 -8.492188 18.90625 -9.210938 19.96875 -9.890625 C 20.425781 -10.179688 20.832031 -10.421875 21.1875 -10.609375 Z M 5.90625 -14.53125 C 5.90625 -14.5 5.882812 -14.484375 5.84375 -14.484375 C 5.78125 -14.421875 5.703125 -14.347656 5.609375 -14.265625 C 5.515625 -14.191406 5.425781 -14.113281 5.34375 -14.03125 C 5.269531 -13.945312 5.234375 -13.890625 5.234375 -13.859375 C 5.265625 -13.765625 5.523438 -13.738281 6.015625 -13.78125 C 6.515625 -13.832031 7.0625 -13.921875 7.65625 -14.046875 C 8.257812 -14.171875 8.765625 -14.335938 9.171875 -14.546875 C 9.578125 -14.765625 9.695312 -15.019531 9.53125 -15.3125 C 9.457031 -15.40625 9.363281 -15.484375 9.25 -15.546875 C 9.144531 -15.609375 9.03125 -15.65625 8.90625 -15.6875 C 8.3125 -15.6875 7.769531 -15.570312 7.28125 -15.34375 C 6.800781 -15.113281 6.34375 -14.84375 5.90625 -14.53125 Z M 5.90625 -14.53125 "/></g></g><g transform="translate(182.897475, 182.5689)"><g><path d="M 15.859375 -10.234375 C 16.109375 -10.835938 16.378906 -11.140625 16.671875 -11.140625 C 16.960938 -11.140625 17.0625 -10.835938 16.96875 -10.234375 C 16.476562 -8.742188 15.894531 -7.3125 15.21875 -5.9375 C 14.550781 -4.570312 13.640625 -3.347656 12.484375 -2.265625 C 11.597656 -1.378906 10.550781 -0.816406 9.34375 -0.578125 C 7.6875 -0.335938 6.316406 -0.53125 5.234375 -1.15625 C 4.160156 -1.789062 3.304688 -2.695312 2.671875 -3.875 C 2.046875 -5.050781 1.578125 -6.335938 1.265625 -7.734375 C 0.960938 -9.140625 0.769531 -10.503906 0.6875 -11.828125 C 0.445312 -14.316406 0.269531 -17.585938 0.15625 -21.640625 C 0.0507812 -25.703125 0.09375 -29.992188 0.28125 -34.515625 C 0.476562 -39.046875 0.921875 -43.242188 1.609375 -47.109375 C 2.304688 -50.972656 3.332031 -53.96875 4.6875 -56.09375 C 5.457031 -57.132812 6.359375 -57.660156 7.390625 -57.671875 C 8.421875 -57.691406 9.34375 -57.21875 10.15625 -56.25 C 10.695312 -55.5 11.101562 -54.707031 11.375 -53.875 C 11.65625 -53.039062 11.84375 -52.191406 11.9375 -51.328125 C 12.226562 -48.359375 12.1875 -45.21875 11.8125 -41.90625 C 11.445312 -38.601562 10.867188 -35.078125 10.078125 -31.328125 C 9.296875 -27.578125 8.351562 -24.273438 7.25 -21.421875 C 6.15625 -18.566406 5.238281 -16.304688 4.5 -14.640625 C 4.101562 -13.960938 3.957031 -12.941406 4.0625 -11.578125 C 4.195312 -10.097656 4.476562 -8.550781 4.90625 -6.9375 C 5.34375 -5.332031 5.945312 -4.0625 6.71875 -3.125 C 7.457031 -2.34375 8.28125 -2.097656 9.1875 -2.390625 C 10.09375 -2.679688 10.992188 -3.296875 11.890625 -4.234375 C 12.796875 -5.171875 13.59375 -6.191406 14.28125 -7.296875 C 14.96875 -8.410156 15.492188 -9.390625 15.859375 -10.234375 Z M 4.15625 -32.71875 C 4.0625 -31.75 3.972656 -30.285156 3.890625 -28.328125 C 3.816406 -26.378906 3.742188 -24.394531 3.671875 -22.375 C 3.609375 -20.113281 3.539062 -18.351562 3.46875 -17.09375 C 4.1875 -18.707031 5.019531 -21.050781 5.96875 -24.125 C 6.925781 -27.195312 7.796875 -30.820312 8.578125 -35 C 9.359375 -39.175781 9.867188 -43.695312 10.109375 -48.5625 C 9.972656 -51.40625 9.628906 -53.332031 9.078125 -54.34375 C 8.535156 -55.351562 7.941406 -55.4375 7.296875 -54.59375 C 6.648438 -53.757812 6.132812 -52.003906 5.75 -49.328125 C 5.164062 -44.890625 4.710938 -40.441406 4.390625 -35.984375 C 4.304688 -34.890625 4.226562 -33.800781 4.15625 -32.71875 Z M 4.15625 -32.71875 "/></g></g><g transform="translate(198.520033, 182.5689)"><g><path d="M 11.390625 -8.921875 C 10.941406 -7.984375 10.171875 -6.941406 9.078125 -5.796875 C 7.992188 -4.660156 6.757812 -3.9375 5.375 -3.625 C 3.988281 -3.320312 2.664062 -3.796875 1.40625 -5.046875 C 0.925781 -5.609375 0.570312 -6.25 0.34375 -6.96875 C 0.113281 -7.695312 0.03125 -8.414062 0.09375 -9.125 C 0.09375 -9.3125 0.09375 -9.550781 0.09375 -9.84375 C 0.09375 -10.59375 0.125 -11.457031 0.1875 -12.4375 C 0.25 -13.414062 0.394531 -14.300781 0.625 -15.09375 C 0.851562 -15.882812 1.207031 -16.363281 1.6875 -16.53125 C 3.082031 -16.875 3.835938 -16.390625 3.953125 -15.078125 C 3.953125 -14.648438 3.9375 -14.222656 3.90625 -13.796875 C 3.882812 -13.578125 3.875 -13.375 3.875 -13.1875 C 3.84375 -12.570312 3.8125 -11.957031 3.78125 -11.34375 C 3.78125 -10.851562 3.757812 -10.367188 3.71875 -9.890625 C 3.6875 -7.765625 4.160156 -6.5 5.140625 -6.09375 C 6.117188 -5.695312 7.238281 -6.125 8.5 -7.375 C 9.757812 -8.632812 10.582031 -9.679688 10.96875 -10.515625 C 11.363281 -11.359375 11.644531 -11.535156 11.8125 -11.046875 C 11.988281 -10.566406 11.847656 -9.859375 11.390625 -8.921875 Z M 3.671875 -21.046875 C 3.484375 -20.890625 3.253906 -20.785156 2.984375 -20.734375 C 2.710938 -20.691406 2.472656 -20.71875 2.265625 -20.8125 C 2.097656 -20.9375 1.992188 -21.101562 1.953125 -21.3125 C 1.910156 -21.53125 1.890625 -21.785156 1.890625 -22.078125 C 1.890625 -22.140625 1.90625 -22.203125 1.9375 -22.265625 C 1.96875 -22.523438 2.03125 -22.785156 2.125 -23.046875 C 2.425781 -23.753906 3.035156 -24.078125 3.953125 -24.015625 C 4.273438 -23.972656 4.523438 -23.84375 4.703125 -23.625 C 4.890625 -23.40625 4.929688 -23.148438 4.828125 -22.859375 C 4.609375 -22.140625 4.222656 -21.535156 3.671875 -21.046875 Z M 3.671875 -21.046875 "/></g></g><g transform="translate(209.308606, 182.5689)"><g><path d="M 18.171875 -8.453125 C 19.296875 -10.242188 19.960938 -11.378906 20.171875 -11.859375 C 20.390625 -12.347656 20.5625 -12.328125 20.6875 -11.796875 C 20.8125 -11.273438 20.445312 -10.085938 19.59375 -8.234375 C 18.75 -6.378906 17.695312 -4.945312 16.4375 -3.9375 C 15.175781 -2.9375 14 -2.566406 12.90625 -2.828125 C 11.8125 -3.097656 11.03125 -3.859375 10.5625 -5.109375 C 10.09375 -6.359375 9.957031 -7.9375 10.15625 -9.84375 C 10.15625 -9.875 10.171875 -9.953125 10.203125 -10.078125 C 10.222656 -10.398438 10.273438 -10.875 10.359375 -11.5 C 10.441406 -12.132812 10.5 -12.789062 10.53125 -13.46875 C 10.570312 -14.144531 10.550781 -14.703125 10.46875 -15.140625 C 10.382812 -15.578125 10.179688 -15.726562 9.859375 -15.59375 C 9.085938 -15.175781 8.332031 -14.347656 7.59375 -13.109375 C 6.851562 -11.867188 6.179688 -10.570312 5.578125 -9.21875 C 4.984375 -7.863281 4.5625 -6.769531 4.3125 -5.9375 C 4.207031 -5.664062 4.109375 -5.382812 4.015625 -5.09375 C 3.890625 -4.71875 3.742188 -4.335938 3.578125 -3.953125 C 3.148438 -2.859375 2.410156 -2.4375 1.359375 -2.6875 C 0.773438 -2.8125 0.429688 -3.164062 0.328125 -3.75 C 0.296875 -4.207031 0.28125 -4.640625 0.28125 -5.046875 C 0.28125 -5.316406 0.265625 -5.5625 0.234375 -5.78125 C 0.179688 -9.03125 0.101562 -12.300781 0 -15.59375 C 0.03125 -15.976562 0.195312 -16.242188 0.5 -16.390625 C 0.8125 -16.535156 1.179688 -16.609375 1.609375 -16.609375 C 1.929688 -16.609375 2.234375 -16.519531 2.515625 -16.34375 C 2.796875 -16.164062 2.972656 -15.800781 3.046875 -15.25 C 3.078125 -15.0625 3.09375 -14.867188 3.09375 -14.671875 C 3.125 -14.578125 3.140625 -14.484375 3.140625 -14.390625 C 3.203125 -13.941406 3.234375 -13.554688 3.234375 -13.234375 C 3.234375 -12.742188 3.265625 -12.410156 3.328125 -12.234375 C 3.390625 -12.054688 3.523438 -12.0625 3.734375 -12.25 C 3.953125 -12.445312 4.304688 -12.90625 4.796875 -13.625 C 5.628906 -14.914062 6.660156 -16.003906 7.890625 -16.890625 C 9.015625 -17.703125 10.253906 -18.039062 11.609375 -17.90625 C 12.765625 -17.789062 13.539062 -17.179688 13.9375 -16.078125 C 14.09375 -15.523438 14.171875 -14.96875 14.171875 -14.40625 C 14.171875 -13.84375 14.132812 -13.273438 14.0625 -12.703125 C 14.03125 -12.117188 13.988281 -11.519531 13.9375 -10.90625 C 13.882812 -10.707031 13.847656 -10.515625 13.828125 -10.328125 C 13.628906 -8.234375 13.691406 -6.828125 14.015625 -6.109375 C 14.335938 -5.398438 14.828125 -5.164062 15.484375 -5.40625 C 16.148438 -5.65625 17.046875 -6.671875 18.171875 -8.453125 Z M 18.171875 -8.453125 "/></g></g><g transform="translate(228.644543, 182.5689)"><g><path d="M 24.859375 -11.296875 C 24.460938 -10.066406 23.664062 -8.65625 22.46875 -7.0625 C 21.269531 -5.476562 19.773438 -4.457031 17.984375 -4 C 16.203125 -3.539062 14.660156 -3.597656 13.359375 -4.171875 C 12.054688 -4.753906 11.335938 -6.304688 11.203125 -8.828125 C 9.722656 -5.960938 8.3125 -4.125 6.96875 -3.3125 C 5.632812 -2.507812 4.242188 -2.203125 2.796875 -2.390625 C 1.148438 -2.660156 0.0390625 -3.300781 -0.53125 -4.3125 C -1.113281 -5.320312 -1.304688 -6.488281 -1.109375 -7.8125 C -0.921875 -9.132812 -0.519531 -10.40625 0.09375 -11.625 C 0.570312 -12.53125 1.238281 -13.367188 2.09375 -14.140625 C 2.957031 -14.921875 3.859375 -15.53125 4.796875 -15.96875 C 5.953125 -16.5625 7.113281 -16.84375 8.28125 -16.8125 C 9.457031 -16.78125 10.710938 -16.390625 12.046875 -15.640625 C 12.066406 -15.609375 12.078125 -15.640625 12.078125 -15.734375 C 12.078125 -15.867188 12.109375 -16.035156 12.171875 -16.234375 C 12.242188 -16.429688 12.363281 -16.585938 12.53125 -16.703125 C 12.96875 -17.023438 13.484375 -17.1875 14.078125 -17.1875 C 14.679688 -17.1875 15.144531 -16.882812 15.46875 -16.28125 C 15.53125 -15.507812 15.453125 -14.519531 15.234375 -13.3125 C 14.742188 -10.675781 14.738281 -8.78125 15.21875 -7.625 C 15.707031 -6.46875 16.5625 -5.925781 17.78125 -6 C 19.007812 -6.082031 20.597656 -7.289062 22.546875 -9.625 C 24.492188 -11.96875 25.265625 -12.523438 24.859375 -11.296875 Z M 3.234375 -5.09375 C 3.898438 -4.613281 4.671875 -4.679688 5.546875 -5.296875 C 6.421875 -5.910156 7.257812 -6.78125 8.0625 -7.90625 C 8.863281 -9.039062 9.539062 -10.171875 10.09375 -11.296875 C 10.644531 -12.421875 10.953125 -13.253906 11.015625 -13.796875 C 9.367188 -14.679688 7.957031 -14.832031 6.78125 -14.25 C 5.613281 -13.664062 4.679688 -12.71875 3.984375 -11.40625 C 3.285156 -10.101562 2.867188 -8.832031 2.734375 -7.59375 C 2.609375 -6.351562 2.773438 -5.519531 3.234375 -5.09375 Z M 3.234375 -5.09375 "/></g></g></g><g clip-path="url(#b3216ba8fc)"><path fill="#baae00" d="M 338.144531 157.753906 C 338.003906 156.484375 337.164062 155.464844 335.9375 155.09375 C 329.738281 153.164062 323.210938 153.8125 318.8125 154.695312 C 318.195312 154.816406 317.792969 155.425781 317.917969 156.042969 C 318.042969 156.664062 318.648438 157.0625 319.269531 156.9375 C 323.402344 156.113281 329.53125 155.507812 335.265625 157.285156 C 335.761719 157.433594 335.855469 157.847656 335.871094 158.015625 C 335.882812 158.179688 335.882812 158.605469 335.441406 158.855469 C 332.535156 160.519531 328.292969 163.648438 324.628906 169.078125 L 324.0625 169.917969 C 321.085938 174.324219 318.746094 177.8125 315.480469 179.753906 C 312.546875 181.503906 308.976562 181.875 304.167969 180.898438 C 315.054688 175.125 314.488281 167.796875 313.714844 157.957031 L 313.632812 156.953125 C 313.164062 150.863281 314.445312 146.125 315.589844 143.230469 C 316.058594 142.046875 315.796875 140.75 314.902344 139.84375 C 314.007812 138.933594 312.710938 138.65625 311.527344 139.125 C 307.144531 140.820312 303.480469 143.671875 300.726562 146.359375 C 297.292969 142.996094 293.671875 140.574219 289.9375 139.125 C 288.753906 138.671875 287.457031 138.945312 286.5625 139.84375 C 285.667969 140.75 285.40625 142.046875 285.875 143.230469 C 287.03125 146.125 288.296875 150.851562 287.828125 156.953125 L 287.746094 157.957031 C 286.976562 167.851562 286.398438 175.207031 297.472656 180.996094 C 292.898438 181.847656 289.484375 181.449219 286.644531 179.769531 C 283.378906 177.824219 281.039062 174.339844 278.0625 169.929688 L 277.496094 169.089844 C 273.832031 163.664062 269.589844 160.535156 266.683594 158.867188 C 266.242188 158.605469 266.226562 158.191406 266.253906 158.027344 C 266.269531 157.863281 266.363281 157.449219 266.859375 157.296875 C 272.605469 155.507812 278.722656 156.125 282.855469 156.953125 C 283.476562 157.078125 284.082031 156.675781 284.207031 156.058594 C 284.332031 155.4375 283.929688 154.832031 283.3125 154.707031 C 278.914062 153.824219 272.386719 153.179688 266.1875 155.105469 C 264.972656 155.480469 264.121094 156.511719 263.980469 157.765625 C 263.84375 159.035156 264.449219 160.203125 265.550781 160.839844 C 268.253906 162.382812 272.191406 165.300781 275.625 170.359375 L 276.1875 171.199219 C 280.914062 178.210938 284.605469 183.695312 293.203125 183.695312 C 295.449219 183.695312 298.039062 183.324219 301.070312 182.496094 C 304.101562 183.324219 306.675781 183.695312 308.9375 183.695312 C 317.53125 183.695312 321.226562 178.210938 325.949219 171.199219 L 326.515625 170.359375 C 329.933594 165.289062 333.871094 162.382812 336.585938 160.839844 C 337.6875 160.203125 338.28125 159.019531 338.144531 157.753906 Z M 300.738281 180.003906 C 295.160156 177.550781 292.03125 174.808594 290.652344 171.15625 C 289.304688 167.617188 289.632812 163.429688 290.046875 158.125 L 290.128906 157.117188 C 290.625 150.589844 289.261719 145.503906 288.007812 142.378906 C 287.816406 141.894531 288.078125 141.5625 288.203125 141.441406 C 288.324219 141.316406 288.65625 141.054688 289.125 141.246094 C 292.554688 142.582031 295.929688 144.84375 299.140625 147.984375 C 296.660156 150.671875 295.253906 152.875 295.132812 153.066406 C 294.785156 153.605469 294.953125 154.308594 295.488281 154.640625 C 296.027344 154.984375 296.730469 154.816406 297.058594 154.28125 C 297.117188 154.183594 303.175781 144.789062 312.367188 141.234375 C 312.847656 141.039062 313.179688 141.300781 313.289062 141.425781 C 313.414062 141.550781 313.660156 141.882812 313.484375 142.363281 C 312.242188 145.476562 310.863281 150.574219 311.359375 157.105469 L 311.445312 158.109375 C 311.855469 163.414062 312.1875 167.601562 310.835938 171.144531 C 309.445312 174.808594 306.320312 177.550781 300.738281 180.003906 Z M 300.738281 180.003906 " fill-opacity="1" fill-rule="nonzero"/></g><path fill="#baae00" d="M 298.78125 138.878906 C 299.386719 139.484375 300.175781 139.773438 300.960938 139.773438 C 301.746094 139.773438 302.542969 139.46875 303.136719 138.878906 L 306.828125 135.183594 C 307.40625 134.605469 307.722656 133.835938 307.722656 133.007812 C 307.722656 132.183594 307.40625 131.410156 306.828125 130.832031 L 303.136719 127.140625 C 301.9375 125.941406 299.980469 125.941406 298.78125 127.140625 L 295.089844 130.832031 C 293.890625 132.03125 293.890625 133.988281 295.089844 135.183594 Z M 296.703125 132.457031 L 300.394531 128.765625 C 300.546875 128.613281 300.753906 128.53125 300.960938 128.53125 C 301.164062 128.53125 301.371094 128.613281 301.523438 128.765625 L 305.214844 132.457031 C 305.367188 132.609375 305.449219 132.800781 305.449219 133.023438 C 305.449219 133.230469 305.367188 133.4375 305.214844 133.585938 L 301.523438 137.28125 C 301.207031 137.597656 300.710938 137.597656 300.394531 137.28125 L 296.703125 133.585938 C 296.550781 133.4375 296.46875 133.242188 296.46875 133.023438 C 296.46875 132.800781 296.550781 132.59375 296.703125 132.457031 Z M 296.703125 132.457031 " fill-opacity="1" fill-rule="nonzero"/><g fill="#122620" fill-opacity="1"><g transform="translate(95.469028, 198.262326)"><g><path d="M 6.21875 -1.046875 L 6.21875 0 L 1.0625 0 L 1.0625 -8.578125 L 2.265625 -8.578125 L 2.265625 -1.046875 Z M 6.21875 -1.046875 "/></g></g></g><g fill="#122620" fill-opacity="1"><g transform="translate(110.134396, 198.262326)"><g><path d="M 5.1875 -2.765625 C 5.1875 -2.347656 5.140625 -1.960938 5.046875 -1.609375 C 4.960938 -1.253906 4.8125 -0.941406 4.59375 -0.671875 C 4.375 -0.398438 4.082031 -0.1875 3.71875 -0.03125 C 3.351562 0.113281 2.894531 0.1875 2.34375 0.1875 C 2.0625 0.1875 1.800781 0.160156 1.5625 0.109375 C 1.332031 0.0664062 1.117188 0.015625 0.921875 -0.046875 C 0.734375 -0.117188 0.566406 -0.191406 0.421875 -0.265625 C 0.285156 -0.347656 0.175781 -0.425781 0.09375 -0.5 L 0.5625 -1.453125 C 0.738281 -1.335938 0.960938 -1.207031 1.234375 -1.0625 C 1.515625 -0.925781 1.863281 -0.859375 2.28125 -0.859375 C 2.875 -0.859375 3.304688 -1.007812 3.578125 -1.3125 C 3.847656 -1.613281 3.984375 -2.132812 3.984375 -2.875 L 3.984375 -8.578125 L 5.1875 -8.578125 Z M 5.1875 -2.765625 "/></g></g></g><g fill="#122620" fill-opacity="1"><g transform="translate(124.564645, 198.262326)"><g><path d="M 4.25 0.1875 C 3.695312 0.1875 3.210938 0.101562 2.796875 -0.0625 C 2.378906 -0.238281 2.039062 -0.476562 1.78125 -0.78125 C 1.519531 -1.082031 1.320312 -1.4375 1.1875 -1.84375 C 1.0625 -2.257812 1 -2.707031 1 -3.1875 L 1 -8.578125 L 2.203125 -8.578125 L 2.203125 -3.328125 C 2.203125 -2.472656 2.390625 -1.847656 2.765625 -1.453125 C 3.148438 -1.066406 3.644531 -0.875 4.25 -0.875 C 4.5625 -0.875 4.84375 -0.921875 5.09375 -1.015625 C 5.34375 -1.109375 5.554688 -1.253906 5.734375 -1.453125 C 5.921875 -1.648438 6.0625 -1.90625 6.15625 -2.21875 C 6.257812 -2.53125 6.3125 -2.898438 6.3125 -3.328125 L 6.3125 -8.578125 L 7.515625 -8.578125 L 7.515625 -3.1875 C 7.515625 -2.707031 7.445312 -2.257812 7.3125 -1.84375 C 7.1875 -1.4375 6.988281 -1.082031 6.71875 -0.78125 C 6.457031 -0.476562 6.117188 -0.238281 5.703125 -0.0625 C 5.296875 0.101562 4.8125 0.1875 4.25 0.1875 Z M 4.25 0.1875 "/></g></g></g><g fill="#122620" fill-opacity="1"><g transform="translate(141.321399, 198.262326)"><g><path d="M 3.375 0.078125 C 3.207031 0.078125 3.019531 0.0703125 2.8125 0.0625 C 2.613281 0.0507812 2.410156 0.0351562 2.203125 0.015625 C 2.003906 0.00390625 1.804688 -0.0078125 1.609375 -0.03125 C 1.410156 -0.0625 1.226562 -0.0976562 1.0625 -0.140625 L 1.0625 -8.453125 C 1.226562 -8.492188 1.410156 -8.523438 1.609375 -8.546875 C 1.804688 -8.578125 2.003906 -8.597656 2.203125 -8.609375 C 2.410156 -8.628906 2.613281 -8.640625 2.8125 -8.640625 C 3.007812 -8.648438 3.191406 -8.65625 3.359375 -8.65625 C 3.859375 -8.65625 4.320312 -8.617188 4.75 -8.546875 C 5.1875 -8.472656 5.5625 -8.347656 5.875 -8.171875 C 6.195312 -7.992188 6.445312 -7.757812 6.625 -7.46875 C 6.8125 -7.1875 6.90625 -6.832031 6.90625 -6.40625 C 6.90625 -5.9375 6.789062 -5.550781 6.5625 -5.25 C 6.34375 -4.945312 6.050781 -4.722656 5.6875 -4.578125 C 6.1875 -4.429688 6.582031 -4.195312 6.875 -3.875 C 7.175781 -3.550781 7.328125 -3.097656 7.328125 -2.515625 C 7.328125 -1.648438 7.007812 -1 6.375 -0.5625 C 5.75 -0.132812 4.75 0.078125 3.375 0.078125 Z M 2.25 -4 L 2.25 -0.984375 C 2.34375 -0.972656 2.453125 -0.960938 2.578125 -0.953125 C 2.679688 -0.941406 2.804688 -0.929688 2.953125 -0.921875 C 3.097656 -0.921875 3.265625 -0.921875 3.453125 -0.921875 C 3.804688 -0.921875 4.140625 -0.941406 4.453125 -0.984375 C 4.773438 -1.035156 5.054688 -1.117188 5.296875 -1.234375 C 5.535156 -1.347656 5.726562 -1.507812 5.875 -1.71875 C 6.019531 -1.925781 6.09375 -2.1875 6.09375 -2.5 C 6.09375 -2.78125 6.035156 -3.015625 5.921875 -3.203125 C 5.816406 -3.398438 5.660156 -3.554688 5.453125 -3.671875 C 5.253906 -3.785156 5.015625 -3.867188 4.734375 -3.921875 C 4.453125 -3.972656 4.140625 -4 3.796875 -4 Z M 2.25 -4.96875 L 3.515625 -4.96875 C 3.804688 -4.96875 4.082031 -4.988281 4.34375 -5.03125 C 4.613281 -5.070312 4.84375 -5.144531 5.03125 -5.25 C 5.226562 -5.351562 5.382812 -5.488281 5.5 -5.65625 C 5.613281 -5.832031 5.671875 -6.054688 5.671875 -6.328125 C 5.671875 -6.566406 5.613281 -6.769531 5.5 -6.9375 C 5.382812 -7.113281 5.222656 -7.253906 5.015625 -7.359375 C 4.816406 -7.460938 4.578125 -7.535156 4.296875 -7.578125 C 4.023438 -7.628906 3.738281 -7.65625 3.4375 -7.65625 C 3.132812 -7.65625 2.894531 -7.648438 2.71875 -7.640625 C 2.550781 -7.640625 2.394531 -7.628906 2.25 -7.609375 Z M 2.25 -4.96875 "/></g></g></g><g fill="#122620" fill-opacity="1"><g transform="translate(157.521271, 198.262326)"><g><path d="M 6.796875 0 C 6.648438 -0.375 6.515625 -0.738281 6.390625 -1.09375 C 6.273438 -1.457031 6.148438 -1.820312 6.015625 -2.1875 L 2.125 -2.1875 L 1.34375 0 L 0.09375 0 C 0.425781 -0.90625 0.734375 -1.742188 1.015625 -2.515625 C 1.304688 -3.285156 1.59375 -4.015625 1.875 -4.703125 C 2.15625 -5.398438 2.429688 -6.0625 2.703125 -6.6875 C 2.972656 -7.320312 3.253906 -7.953125 3.546875 -8.578125 L 4.65625 -8.578125 C 4.945312 -7.953125 5.226562 -7.320312 5.5 -6.6875 C 5.78125 -6.0625 6.054688 -5.398438 6.328125 -4.703125 C 6.609375 -4.015625 6.890625 -3.285156 7.171875 -2.515625 C 7.460938 -1.742188 7.773438 -0.90625 8.109375 0 Z M 5.671875 -3.1875 C 5.398438 -3.894531 5.132812 -4.585938 4.875 -5.265625 C 4.613281 -5.941406 4.347656 -6.585938 4.078125 -7.203125 C 3.785156 -6.585938 3.507812 -5.941406 3.25 -5.265625 C 2.988281 -4.585938 2.726562 -3.894531 2.46875 -3.1875 Z M 5.671875 -3.1875 "/></g></g></g><g fill="#122620" fill-opacity="1"><g transform="translate(173.968644, 198.262326)"><g><path d="M 8 -8.578125 C 7.6875 -7.671875 7.382812 -6.832031 7.09375 -6.0625 C 6.8125 -5.289062 6.535156 -4.554688 6.265625 -3.859375 C 5.992188 -3.171875 5.722656 -2.507812 5.453125 -1.875 C 5.179688 -1.238281 4.90625 -0.613281 4.625 0 L 3.5 0 C 3.21875 -0.613281 2.941406 -1.238281 2.671875 -1.875 C 2.410156 -2.507812 2.140625 -3.171875 1.859375 -3.859375 C 1.585938 -4.554688 1.304688 -5.289062 1.015625 -6.0625 C 0.722656 -6.832031 0.425781 -7.671875 0.125 -8.578125 L 1.453125 -8.578125 C 1.890625 -7.273438 2.320312 -6.019531 2.75 -4.8125 C 3.1875 -3.601562 3.628906 -2.472656 4.078125 -1.421875 C 4.535156 -2.472656 4.976562 -3.601562 5.40625 -4.8125 C 5.832031 -6.019531 6.265625 -7.273438 6.703125 -8.578125 Z M 8 -8.578125 "/></g></g></g><g fill="#122620" fill-opacity="1"><g transform="translate(190.329397, 198.262326)"><g/></g></g><g fill="#122620" fill-opacity="1"><g transform="translate(201.43076, 198.262326)"><g><path d="M 4.25 0.1875 C 3.695312 0.1875 3.210938 0.101562 2.796875 -0.0625 C 2.378906 -0.238281 2.039062 -0.476562 1.78125 -0.78125 C 1.519531 -1.082031 1.320312 -1.4375 1.1875 -1.84375 C 1.0625 -2.257812 1 -2.707031 1 -3.1875 L 1 -8.578125 L 2.203125 -8.578125 L 2.203125 -3.328125 C 2.203125 -2.472656 2.390625 -1.847656 2.765625 -1.453125 C 3.148438 -1.066406 3.644531 -0.875 4.25 -0.875 C 4.5625 -0.875 4.84375 -0.921875 5.09375 -1.015625 C 5.34375 -1.109375 5.554688 -1.253906 5.734375 -1.453125 C 5.921875 -1.648438 6.0625 -1.90625 6.15625 -2.21875 C 6.257812 -2.53125 6.3125 -2.898438 6.3125 -3.328125 L 6.3125 -8.578125 L 7.515625 -8.578125 L 7.515625 -3.1875 C 7.515625 -2.707031 7.445312 -2.257812 7.3125 -1.84375 C 7.1875 -1.4375 6.988281 -1.082031 6.71875 -0.78125 C 6.457031 -0.476562 6.117188 -0.238281 5.703125 -0.0625 C 5.296875 0.101562 4.8125 0.1875 4.25 0.1875 Z M 4.25 0.1875 "/></g></g></g><g fill="#122620" fill-opacity="1"><g transform="translate(218.187519, 198.262326)"><g/></g></g><g fill="#122620" fill-opacity="1"><g transform="translate(229.288882, 198.262326)"><g><path d="M 3.0625 -0.859375 C 4.3125 -0.859375 4.9375 -1.285156 4.9375 -2.140625 C 4.9375 -2.398438 4.878906 -2.625 4.765625 -2.8125 C 4.660156 -3 4.507812 -3.160156 4.3125 -3.296875 C 4.125 -3.429688 3.90625 -3.546875 3.65625 -3.640625 C 3.414062 -3.742188 3.160156 -3.847656 2.890625 -3.953125 C 2.578125 -4.054688 2.28125 -4.175781 2 -4.3125 C 1.71875 -4.445312 1.472656 -4.609375 1.265625 -4.796875 C 1.066406 -4.984375 0.90625 -5.203125 0.78125 -5.453125 C 0.664062 -5.710938 0.609375 -6.023438 0.609375 -6.390625 C 0.609375 -7.140625 0.863281 -7.722656 1.375 -8.140625 C 1.882812 -8.566406 2.585938 -8.78125 3.484375 -8.78125 C 4.003906 -8.78125 4.476562 -8.722656 4.90625 -8.609375 C 5.332031 -8.492188 5.644531 -8.367188 5.84375 -8.234375 L 5.453125 -7.265625 C 5.285156 -7.367188 5.03125 -7.472656 4.6875 -7.578125 C 4.34375 -7.679688 3.941406 -7.734375 3.484375 -7.734375 C 3.253906 -7.734375 3.039062 -7.707031 2.84375 -7.65625 C 2.644531 -7.613281 2.472656 -7.539062 2.328125 -7.4375 C 2.179688 -7.332031 2.0625 -7.203125 1.96875 -7.046875 C 1.882812 -6.898438 1.84375 -6.722656 1.84375 -6.515625 C 1.84375 -6.285156 1.882812 -6.09375 1.96875 -5.9375 C 2.0625 -5.78125 2.191406 -5.640625 2.359375 -5.515625 C 2.523438 -5.398438 2.71875 -5.289062 2.9375 -5.1875 C 3.15625 -5.09375 3.394531 -5 3.65625 -4.90625 C 4.03125 -4.75 4.367188 -4.597656 4.671875 -4.453125 C 4.984375 -4.304688 5.253906 -4.128906 5.484375 -3.921875 C 5.710938 -3.710938 5.890625 -3.46875 6.015625 -3.1875 C 6.140625 -2.90625 6.203125 -2.5625 6.203125 -2.15625 C 6.203125 -1.40625 5.925781 -0.828125 5.375 -0.421875 C 4.820312 -0.015625 4.050781 0.1875 3.0625 0.1875 C 2.71875 0.1875 2.40625 0.160156 2.125 0.109375 C 1.84375 0.0664062 1.585938 0.015625 1.359375 -0.046875 C 1.140625 -0.109375 0.945312 -0.171875 0.78125 -0.234375 C 0.625 -0.304688 0.5 -0.367188 0.40625 -0.421875 L 0.765625 -1.40625 C 0.953125 -1.300781 1.238281 -1.179688 1.625 -1.046875 C 2.019531 -0.921875 2.5 -0.859375 3.0625 -0.859375 Z M 3.0625 -0.859375 "/></g></g></g><g fill="#122620" fill-opacity="1"><g transform="translate(244.115137, 198.262326)"><g><path d="M 8 -8.578125 C 7.6875 -7.671875 7.382812 -6.832031 7.09375 -6.0625 C 6.8125 -5.289062 6.535156 -4.554688 6.265625 -3.859375 C 5.992188 -3.171875 5.722656 -2.507812 5.453125 -1.875 C 5.179688 -1.238281 4.90625 -0.613281 4.625 0 L 3.5 0 C 3.21875 -0.613281 2.941406 -1.238281 2.671875 -1.875 C 2.410156 -2.507812 2.140625 -3.171875 1.859375 -3.859375 C 1.585938 -4.554688 1.304688 -5.289062 1.015625 -6.0625 C 0.722656 -6.832031 0.425781 -7.671875 0.125 -8.578125 L 1.453125 -8.578125 C 1.890625 -7.273438 2.320312 -6.019531 2.75 -4.8125 C 3.1875 -3.601562 3.628906 -2.472656 4.078125 -1.421875 C 4.535156 -2.472656 4.976562 -3.601562 5.40625 -4.8125 C 5.832031 -6.019531 6.265625 -7.273438 6.703125 -8.578125 Z M 8 -8.578125 "/></g></g></g><g fill="#122620" fill-opacity="1"><g transform="translate(260.475884, 198.262326)"><g><path d="M 6.796875 0 C 6.648438 -0.375 6.515625 -0.738281 6.390625 -1.09375 C 6.273438 -1.457031 6.148438 -1.820312 6.015625 -2.1875 L 2.125 -2.1875 L 1.34375 0 L 0.09375 0 C 0.425781 -0.90625 0.734375 -1.742188 1.015625 -2.515625 C 1.304688 -3.285156 1.59375 -4.015625 1.875 -4.703125 C 2.15625 -5.398438 2.429688 -6.0625 2.703125 -6.6875 C 2.972656 -7.320312 3.253906 -7.953125 3.546875 -8.578125 L 4.65625 -8.578125 C 4.945312 -7.953125 5.226562 -7.320312 5.5 -6.6875 C 5.78125 -6.0625 6.054688 -5.398438 6.328125 -4.703125 C 6.609375 -4.015625 6.890625 -3.285156 7.171875 -2.515625 C 7.460938 -1.742188 7.773438 -0.90625 8.109375 0 Z M 5.671875 -3.1875 C 5.398438 -3.894531 5.132812 -4.585938 4.875 -5.265625 C 4.613281 -5.941406 4.347656 -6.585938 4.078125 -7.203125 C 3.785156 -6.585938 3.507812 -5.941406 3.25 -5.265625 C 2.988281 -4.585938 2.726562 -3.894531 2.46875 -3.1875 Z M 5.671875 -3.1875 "/></g></g></g><g fill="#122620" fill-opacity="1"><g transform="translate(276.923263, 198.262326)"><g><path d="M 7.40625 -8.578125 C 7.15625 -8.296875 6.867188 -7.984375 6.546875 -7.640625 C 6.222656 -7.296875 5.882812 -6.941406 5.53125 -6.578125 C 5.1875 -6.222656 4.835938 -5.875 4.484375 -5.53125 C 4.140625 -5.1875 3.816406 -4.863281 3.515625 -4.5625 C 3.867188 -4.3125 4.242188 -4.003906 4.640625 -3.640625 C 5.035156 -3.285156 5.421875 -2.898438 5.796875 -2.484375 C 6.179688 -2.078125 6.539062 -1.65625 6.875 -1.21875 C 7.207031 -0.789062 7.484375 -0.382812 7.703125 0 L 6.296875 0 C 6.046875 -0.382812 5.757812 -0.769531 5.4375 -1.15625 C 5.125 -1.550781 4.785156 -1.925781 4.421875 -2.28125 C 4.066406 -2.644531 3.703125 -2.976562 3.328125 -3.28125 C 2.960938 -3.59375 2.609375 -3.859375 2.265625 -4.078125 L 2.265625 0 L 1.0625 0 L 1.0625 -8.578125 L 2.265625 -8.578125 L 2.265625 -4.796875 C 2.554688 -5.066406 2.875 -5.367188 3.21875 -5.703125 C 3.5625 -6.046875 3.898438 -6.390625 4.234375 -6.734375 C 4.578125 -7.085938 4.898438 -7.421875 5.203125 -7.734375 C 5.503906 -8.054688 5.757812 -8.335938 5.96875 -8.578125 Z M 7.40625 -8.578125 "/></g></g></g><g fill="#122620" fill-opacity="1"><g transform="translate(292.949888, 198.262326)"><g><path d="M 0.71875 -4.296875 C 0.71875 -5.023438 0.828125 -5.671875 1.046875 -6.234375 C 1.265625 -6.796875 1.5625 -7.265625 1.9375 -7.640625 C 2.3125 -8.015625 2.75 -8.296875 3.25 -8.484375 C 3.75 -8.679688 4.28125 -8.78125 4.84375 -8.78125 C 5.394531 -8.78125 5.914062 -8.679688 6.40625 -8.484375 C 6.894531 -8.296875 7.320312 -8.015625 7.6875 -7.640625 C 8.0625 -7.265625 8.359375 -6.796875 8.578125 -6.234375 C 8.796875 -5.671875 8.90625 -5.023438 8.90625 -4.296875 C 8.90625 -3.554688 8.796875 -2.90625 8.578125 -2.34375 C 8.359375 -1.789062 8.0625 -1.328125 7.6875 -0.953125 C 7.320312 -0.578125 6.894531 -0.289062 6.40625 -0.09375 C 5.914062 0.09375 5.394531 0.1875 4.84375 0.1875 C 4.28125 0.1875 3.75 0.09375 3.25 -0.09375 C 2.75 -0.289062 2.3125 -0.578125 1.9375 -0.953125 C 1.5625 -1.328125 1.265625 -1.789062 1.046875 -2.34375 C 0.828125 -2.90625 0.71875 -3.554688 0.71875 -4.296875 Z M 1.984375 -4.296875 C 1.984375 -3.773438 2.046875 -3.300781 2.171875 -2.875 C 2.304688 -2.445312 2.492188 -2.082031 2.734375 -1.78125 C 2.984375 -1.488281 3.28125 -1.257812 3.625 -1.09375 C 3.976562 -0.9375 4.375 -0.859375 4.8125 -0.859375 C 5.25 -0.859375 5.640625 -0.9375 5.984375 -1.09375 C 6.335938 -1.257812 6.632812 -1.488281 6.875 -1.78125 C 7.113281 -2.082031 7.300781 -2.445312 7.4375 -2.875 C 7.570312 -3.300781 7.640625 -3.773438 7.640625 -4.296875 C 7.640625 -4.816406 7.570312 -5.285156 7.4375 -5.703125 C 7.300781 -6.128906 7.113281 -6.488281 6.875 -6.78125 C 6.632812 -7.082031 6.335938 -7.3125 5.984375 -7.46875 C 5.640625 -7.632812 5.25 -7.71875 4.8125 -7.71875 C 4.375 -7.71875 3.976562 -7.632812 3.625 -7.46875 C 3.28125 -7.3125 2.984375 -7.082031 2.734375 -6.78125 C 2.492188 -6.488281 2.304688 -6.128906 2.171875 -5.703125 C 2.046875 -5.285156 1.984375 -4.816406 1.984375 -4.296875 Z M 1.984375 -4.296875 "/></g></g></g><g fill="#122620" fill-opacity="1"><g transform="translate(310.820386, 198.262326)"><g><path d="M 5.1875 -2.765625 C 5.1875 -2.347656 5.140625 -1.960938 5.046875 -1.609375 C 4.960938 -1.253906 4.8125 -0.941406 4.59375 -0.671875 C 4.375 -0.398438 4.082031 -0.1875 3.71875 -0.03125 C 3.351562 0.113281 2.894531 0.1875 2.34375 0.1875 C 2.0625 0.1875 1.800781 0.160156 1.5625 0.109375 C 1.332031 0.0664062 1.117188 0.015625 0.921875 -0.046875 C 0.734375 -0.117188 0.566406 -0.191406 0.421875 -0.265625 C 0.285156 -0.347656 0.175781 -0.425781 0.09375 -0.5 L 0.5625 -1.453125 C 0.738281 -1.335938 0.960938 -1.207031 1.234375 -1.0625 C 1.515625 -0.925781 1.863281 -0.859375 2.28125 -0.859375 C 2.875 -0.859375 3.304688 -1.007812 3.578125 -1.3125 C 3.847656 -1.613281 3.984375 -2.132812 3.984375 -2.875 L 3.984375 -8.578125 L 5.1875 -8.578125 Z M 5.1875 -2.765625 "/></g></g></g><g fill="#122620" fill-opacity="1"><g transform="translate(160.367461, 215.512325)"><g><path d="M 3.0625 -0.859375 C 4.3125 -0.859375 4.9375 -1.285156 4.9375 -2.140625 C 4.9375 -2.398438 4.878906 -2.625 4.765625 -2.8125 C 4.660156 -3 4.507812 -3.160156 4.3125 -3.296875 C 4.125 -3.429688 3.90625 -3.546875 3.65625 -3.640625 C 3.414062 -3.742188 3.160156 -3.847656 2.890625 -3.953125 C 2.578125 -4.054688 2.28125 -4.175781 2 -4.3125 C 1.71875 -4.445312 1.472656 -4.609375 1.265625 -4.796875 C 1.066406 -4.984375 0.90625 -5.203125 0.78125 -5.453125 C 0.664062 -5.710938 0.609375 -6.023438 0.609375 -6.390625 C 0.609375 -7.140625 0.863281 -7.722656 1.375 -8.140625 C 1.882812 -8.566406 2.585938 -8.78125 3.484375 -8.78125 C 4.003906 -8.78125 4.476562 -8.722656 4.90625 -8.609375 C 5.332031 -8.492188 5.644531 -8.367188 5.84375 -8.234375 L 5.453125 -7.265625 C 5.285156 -7.367188 5.03125 -7.472656 4.6875 -7.578125 C 4.34375 -7.679688 3.941406 -7.734375 3.484375 -7.734375 C 3.253906 -7.734375 3.039062 -7.707031 2.84375 -7.65625 C 2.644531 -7.613281 2.472656 -7.539062 2.328125 -7.4375 C 2.179688 -7.332031 2.0625 -7.203125 1.96875 -7.046875 C 1.882812 -6.898438 1.84375 -6.722656 1.84375 -6.515625 C 1.84375 -6.285156 1.882812 -6.09375 1.96875 -5.9375 C 2.0625 -5.78125 2.191406 -5.640625 2.359375 -5.515625 C 2.523438 -5.398438 2.71875 -5.289062 2.9375 -5.1875 C 3.15625 -5.09375 3.394531 -5 3.65625 -4.90625 C 4.03125 -4.75 4.367188 -4.597656 4.671875 -4.453125 C 4.984375 -4.304688 5.253906 -4.128906 5.484375 -3.921875 C 5.710938 -3.710938 5.890625 -3.46875 6.015625 -3.1875 C 6.140625 -2.90625 6.203125 -2.5625 6.203125 -2.15625 C 6.203125 -1.40625 5.925781 -0.828125 5.375 -0.421875 C 4.820312 -0.015625 4.050781 0.1875 3.0625 0.1875 C 2.71875 0.1875 2.40625 0.160156 2.125 0.109375 C 1.84375 0.0664062 1.585938 0.015625 1.359375 -0.046875 C 1.140625 -0.109375 0.945312 -0.171875 0.78125 -0.234375 C 0.625 -0.304688 0.5 -0.367188 0.40625 -0.421875 L 0.765625 -1.40625 C 0.953125 -1.300781 1.238281 -1.179688 1.625 -1.046875 C 2.019531 -0.921875 2.5 -0.859375 3.0625 -0.859375 Z M 3.0625 -0.859375 "/></g></g></g><g fill="#122620" fill-opacity="1"><g transform="translate(175.19371, 215.512325)"><g><path d="M 8 -8.578125 C 7.6875 -7.671875 7.382812 -6.832031 7.09375 -6.0625 C 6.8125 -5.289062 6.535156 -4.554688 6.265625 -3.859375 C 5.992188 -3.171875 5.722656 -2.507812 5.453125 -1.875 C 5.179688 -1.238281 4.90625 -0.613281 4.625 0 L 3.5 0 C 3.21875 -0.613281 2.941406 -1.238281 2.671875 -1.875 C 2.410156 -2.507812 2.140625 -3.171875 1.859375 -3.859375 C 1.585938 -4.554688 1.304688 -5.289062 1.015625 -6.0625 C 0.722656 -6.832031 0.425781 -7.671875 0.125 -8.578125 L 1.453125 -8.578125 C 1.890625 -7.273438 2.320312 -6.019531 2.75 -4.8125 C 3.1875 -3.601562 3.628906 -2.472656 4.078125 -1.421875 C 4.535156 -2.472656 4.976562 -3.601562 5.40625 -4.8125 C 5.832031 -6.019531 6.265625 -7.273438 6.703125 -8.578125 Z M 8 -8.578125 "/></g></g></g><g fill="#122620" fill-opacity="1"><g transform="translate(191.554463, 215.512325)"><g><path d="M 1.0625 -8.578125 L 2.265625 -8.578125 L 2.265625 0 L 1.0625 0 Z M 1.0625 -8.578125 "/></g></g></g><g fill="#122620" fill-opacity="1"><g transform="translate(203.126082, 215.512325)"><g><path d="M 5.1875 -2.765625 C 5.1875 -2.347656 5.140625 -1.960938 5.046875 -1.609375 C 4.960938 -1.253906 4.8125 -0.941406 4.59375 -0.671875 C 4.375 -0.398438 4.082031 -0.1875 3.71875 -0.03125 C 3.351562 0.113281 2.894531 0.1875 2.34375 0.1875 C 2.0625 0.1875 1.800781 0.160156 1.5625 0.109375 C 1.332031 0.0664062 1.117188 0.015625 0.921875 -0.046875 C 0.734375 -0.117188 0.566406 -0.191406 0.421875 -0.265625 C 0.285156 -0.347656 0.175781 -0.425781 0.09375 -0.5 L 0.5625 -1.453125 C 0.738281 -1.335938 0.960938 -1.207031 1.234375 -1.0625 C 1.515625 -0.925781 1.863281 -0.859375 2.28125 -0.859375 C 2.875 -0.859375 3.304688 -1.007812 3.578125 -1.3125 C 3.847656 -1.613281 3.984375 -2.132812 3.984375 -2.875 L 3.984375 -8.578125 L 5.1875 -8.578125 Z M 5.1875 -2.765625 "/></g></g></g><g fill="#122620" fill-opacity="1"><g transform="translate(217.556331, 215.512325)"><g><path d="M 1.0625 0 L 1.0625 -8.578125 L 6.296875 -8.578125 L 6.296875 -7.546875 L 2.265625 -7.546875 L 2.265625 -5 L 5.859375 -5 L 5.859375 -4 L 2.265625 -4 L 2.265625 -1.03125 L 6.609375 -1.03125 L 6.609375 0 Z M 1.0625 0 "/></g></g></g><g fill="#122620" fill-opacity="1"><g transform="translate(232.8652, 215.512325)"><g><path d="M 4.75 0.1875 C 4.144531 0.1875 3.59375 0.0859375 3.09375 -0.109375 C 2.601562 -0.304688 2.179688 -0.59375 1.828125 -0.96875 C 1.472656 -1.351562 1.195312 -1.820312 1 -2.375 C 0.8125 -2.9375 0.71875 -3.578125 0.71875 -4.296875 C 0.71875 -5.015625 0.828125 -5.648438 1.046875 -6.203125 C 1.265625 -6.765625 1.554688 -7.234375 1.921875 -7.609375 C 2.296875 -7.992188 2.726562 -8.285156 3.21875 -8.484375 C 3.71875 -8.679688 4.25 -8.78125 4.8125 -8.78125 C 5.164062 -8.78125 5.484375 -8.753906 5.765625 -8.703125 C 6.054688 -8.648438 6.304688 -8.585938 6.515625 -8.515625 C 6.722656 -8.453125 6.894531 -8.390625 7.03125 -8.328125 C 7.164062 -8.265625 7.253906 -8.21875 7.296875 -8.1875 L 6.953125 -7.1875 C 6.878906 -7.238281 6.769531 -7.289062 6.625 -7.34375 C 6.488281 -7.40625 6.332031 -7.460938 6.15625 -7.515625 C 5.976562 -7.578125 5.785156 -7.625 5.578125 -7.65625 C 5.367188 -7.695312 5.15625 -7.71875 4.9375 -7.71875 C 4.476562 -7.71875 4.066406 -7.640625 3.703125 -7.484375 C 3.347656 -7.328125 3.039062 -7.097656 2.78125 -6.796875 C 2.53125 -6.503906 2.335938 -6.144531 2.203125 -5.71875 C 2.066406 -5.300781 2 -4.828125 2 -4.296875 C 2 -3.785156 2.054688 -3.316406 2.171875 -2.890625 C 2.285156 -2.472656 2.460938 -2.113281 2.703125 -1.8125 C 2.941406 -1.507812 3.238281 -1.273438 3.59375 -1.109375 C 3.957031 -0.941406 4.378906 -0.859375 4.859375 -0.859375 C 5.410156 -0.859375 5.867188 -0.914062 6.234375 -1.03125 C 6.597656 -1.15625 6.867188 -1.257812 7.046875 -1.34375 L 7.359375 -0.359375 C 7.304688 -0.316406 7.203125 -0.265625 7.046875 -0.203125 C 6.898438 -0.140625 6.710938 -0.078125 6.484375 -0.015625 C 6.265625 0.0351562 6.003906 0.0820312 5.703125 0.125 C 5.410156 0.164062 5.09375 0.1875 4.75 0.1875 Z M 6.03125 -10.8125 L 4.296875 -9.109375 L 3.71875 -9.640625 L 5.296875 -11.546875 Z M 6.03125 -10.8125 "/></g></g></g><g fill="#122620" fill-opacity="1"><g transform="translate(248.780446, 215.512325)"><g><path d="M 1.0625 -8.578125 L 2.265625 -8.578125 L 2.265625 0 L 1.0625 0 Z M 1.0625 -8.578125 "/></g></g></g></svg>